<svg xmlns="http://www.w3.org/2000/svg" viewBox="0 0 110 32" width="110px" height="32px" version="1.1"><g fill="none" fill-rule="evenodd" stroke="none" stroke-width="1"><g fill="#7a8995" transform="translate(-195 -2504)"><g transform="translate(195 2504)"><path d="M 110 32 L 110 0 L 75.9086 0 L 75.9086 32 L 110 32 L 110 32 L 110 32 Z M 102.23 9.18619 C 99.5955 7.71293 96.9833 6.93297 94.5261 6.93297 C 91.8917 6.93297 89.7223 7.75626 88.0398 9.40284 C 86.3131 10.9844 85.4055 12.956 85.4055 15.4259 C 85.4055 17.7874 86.291 19.8023 87.9734 21.4489 C 89.7666 22.9871 91.8917 23.7454 94.4596 23.7454 C 97.2047 23.7454 99.8833 22.9221 102.518 21.2756 L 102.518 24.7204 C 100.06 26.042 97.3154 26.6919 94.3047 26.6919 C 91.7368 26.6919 89.6116 26.1936 87.8185 25.2187 C 86.0918 24.1787 84.6971 22.8138 83.6345 21.1239 C 82.6384 19.2607 82.0628 17.3974 82.0628 15.4259 C 82.0628 12.1327 83.2361 9.46784 85.649 7.27962 C 87.9956 5.0914 90.8956 3.94313 94.3047 3.94313 C 96.7619 3.94313 99.3963 4.54976 102.252 5.80636 L 102.23 9.18619 Z M 72.101 0 L 38.0097 0 L 38.0097 32 L 72.101 32 L 72.101 0 Z M 48.4584 4.76642 L 54.3912 4.76642 C 56.295 4.76642 57.7561 4.98307 58.7965 5.48138 C 59.8591 6.02302 60.6339 6.69465 61.1431 7.49628 C 61.6965 8.3629 61.9843 9.35951 61.9843 10.5078 C 61.9843 12.696 60.8553 14.2343 58.5088 15.1659 C 60.1912 15.4475 61.5194 16.0975 62.4713 17.1808 C 63.4232 18.1557 63.866 19.434 63.9324 20.8422 C 63.8881 21.9472 63.6003 22.9655 63.0469 23.8538 C 62.427 24.7204 61.5858 25.4353 60.4126 26.042 C 59.2393 26.5836 57.8446 26.8653 56.1179 26.8653 L 48.4584 26.8653 L 48.4584 4.76642 Z M 53.8157 14.2126 C 55.5424 14.2126 56.782 13.8876 57.5126 13.281 C 58.2431 12.566 58.6194 11.7427 58.6194 10.7028 C 58.6194 8.62288 57.2248 7.53961 54.4798 7.53961 L 51.6905 7.53961 L 51.6905 14.2126 L 53.8157 14.2126 Z M 54.7011 17.0724 L 51.6905 17.0724 L 51.6905 24.0271 L 54.9225 24.0271 C 56.4279 24.0271 57.6675 23.9188 58.4423 23.7021 C 59.1729 23.3121 59.682 22.8788 60.0141 22.3805 C 60.3461 21.8389 60.5675 21.2322 60.5675 20.5823 C 60.5011 19.9323 60.3461 19.3257 59.9477 18.784 C 59.6156 18.1774 59.0622 17.7441 58.2652 17.4624 C 57.5569 17.1808 56.3393 17.0074 54.7011 17.0724 Z M 34.0914 0 L 0 0 L 0 32 L 34.0914 32 L 34.0914 0 Z M 10.3824 26.8653 L 10.3824 4.76642 L 16.3152 4.76642 C 18.219 4.76642 19.6136 4.98307 20.6762 5.48138 C 21.7388 5.97969 22.58 6.69465 23.0892 7.56127 C 23.6426 8.38456 23.9304 9.35951 23.9746 10.5078 C 23.9082 12.696 22.8014 14.2126 20.4548 15.2092 C 22.1815 15.4909 23.4655 16.1408 24.4174 17.1808 C 25.3693 18.1557 25.8784 19.434 25.8784 20.8422 C 25.8784 21.9905 25.5907 23.0305 24.993 23.8538 C 24.3731 24.7854 23.5319 25.5003 22.425 26.042 C 21.2518 26.5836 19.7907 26.8653 18.064 26.8653 L 10.3824 26.8653 Z M 16.4258 7.53961 L 13.6365 7.53961 L 13.6365 14.2126 L 15.806 14.2126 C 17.4884 14.2126 18.706 13.8876 19.4365 13.281 C 20.167 12.631 20.5434 11.7427 20.5434 10.7678 C 20.5655 8.64455 19.1487 7.53961 16.4258 7.53961 Z M 16.6472 17.0724 L 13.6365 17.0724 L 13.6365 24.0271 L 16.8243 24.0271 C 18.5067 24.0271 19.7243 23.9188 20.4548 23.7021 C 21.0747 23.4204 21.5617 23.0521 21.9602 22.4888 C 22.2922 21.8822 22.4693 21.2756 22.5136 20.5823 C 22.4472 19.824 22.2258 19.2173 21.8937 18.784 C 21.4953 18.1774 20.9418 17.7441 20.2113 17.5274 C 19.4365 17.1808 18.1968 17.0724 16.6472 17.0724 Z" /></g></g></g></svg>