<svg xmlns="http://www.w3.org/2000/svg" viewBox="0 0 123 32" width="123px" height="32px" version="1.1"><g fill="none" fill-rule="evenodd" stroke="none" stroke-width="1"><g fill="#7a8995" transform="translate(-399 -2504)"><g transform="translate(195 2504)"><path d="M 273.836 0 L 273.481 0.0711544 C 273.286 0.115626 271.291 0.489187 269.048 0.907219 C 266.804 1.32525 264.88 1.68102 264.774 1.70771 C 264.614 1.74328 264.579 1.80554 264.596 2.09016 C 264.614 2.39257 264.641 2.42815 264.969 2.4993 C 266.095 2.74834 266.299 2.83728 266.716 3.26421 C 267.221 3.79787 267.46 4.47383 267.611 5.88803 C 267.726 7.01761 267.753 26.425 267.638 29.2889 L 267.576 30.9878 L 268.489 31.1834 C 271.947 31.9306 275.396 32.1885 277.56 31.8594 C 280.255 31.4592 282.224 30.5253 283.9 28.8798 C 286.294 26.505 287.446 23.143 287.358 19.0071 C 287.269 16.8814 286.914 15.485 286.028 13.7595 C 284.822 11.4203 282.791 9.78374 280.468 9.30344 C 278.739 8.93878 276.496 9.22339 274.802 10.0239 C 274.377 10.2196 273.969 10.3797 273.898 10.3797 C 273.783 10.3797 273.774 9.72147 273.8 5.19427 L 273.836 3.79187e-015 L 273.836 0 Z M 204 0.595918 L 204.027 1.15626 L 204.053 1.70771 L 204.851 1.80554 C 205.916 1.93896 206.305 2.05458 206.731 2.36589 C 207.387 2.83728 207.786 3.53104 208.034 4.62504 C 208.425 6.32385 208.566 10.1573 208.504 17.3172 C 208.433 24.8863 208.336 26.4606 207.857 27.9904 C 207.458 29.2445 206.722 29.9115 205.508 30.1161 C 205.173 30.1695 204.699 30.2584 204.454 30.3118 L 204.009 30.4096 L 204.009 31.3702 L 219.881 31.3702 L 219.881 30.881 C 219.881 30.6142 219.854 30.3918 219.827 30.3918 C 219.402 30.3918 217.433 29.9649 217.114 29.8048 C 215.988 29.2356 215.474 27.8836 215.27 25.0108 C 215.128 22.9651 214.986 16.9436 215.075 16.8547 C 215.163 16.7658 218.905 16.917 219.349 17.0237 C 220.555 17.3172 221.494 18.509 221.955 20.368 L 222.168 21.1862 L 222.709 21.2129 L 223.25 21.2396 L 223.25 10.9133 L 222.674 10.9133 C 222.133 10.9133 222.097 10.9311 222.097 11.1179 C 222.097 11.4559 221.76 12.5232 221.441 13.1903 C 220.945 14.2487 220.244 14.8802 219.349 15.0847 C 219.127 15.1381 218.09 15.2182 217.043 15.2715 C 215.571 15.3338 215.128 15.3338 215.066 15.2448 C 214.968 15.0936 215.199 3.37984 215.314 2.83728 L 215.359 2.63271 L 218.622 2.6594 L 221.876 2.68608 L 222.629 2.9618 C 224.385 3.5933 225.653 4.87408 226.708 7.10655 C 226.939 7.61352 227.249 8.34286 227.382 8.73421 C 227.515 9.12556 227.63 9.46354 227.639 9.47243 C 227.657 9.49022 227.95 9.41907 228.286 9.31234 L 228.916 9.11666 L 228.872 6.21712 C 228.845 4.61614 228.81 2.69497 228.774 1.95675 L 228.73 0.595918 L 204 0.595918 L 204 0.595918 Z M 263.453 8.79647 C 263.355 8.79647 263.258 8.79647 263.151 8.80536 C 260.952 8.92988 258.993 10.3974 257.592 12.9768 C 257.352 13.4126 257.113 13.7595 257.051 13.7595 C 256.962 13.7595 256.953 13.2703 256.997 11.3136 L 257.06 8.85873 L 256.847 8.91209 C 256.731 8.93878 254.958 9.29455 252.91 9.71258 C 248.512 10.5931 247.9 10.7265 247.803 10.7888 C 247.758 10.8155 247.723 10.9756 247.723 11.1446 C 247.723 11.4737 247.678 11.4559 248.68 11.616 C 250.055 11.8383 250.534 12.5143 250.737 14.471 C 251.012 17.0326 250.906 27.0031 250.596 28.3639 C 250.436 29.0577 250.028 29.7337 249.62 29.9649 C 249.461 30.0539 248.982 30.1962 248.556 30.2851 L 247.767 30.4363 L 247.74 30.9077 L 247.714 31.3702 L 260.757 31.3702 L 260.757 30.4096 L 260.065 30.3474 C 258.487 30.214 258.053 30.0539 257.636 29.4579 C 257.033 28.5863 256.9 26.9764 256.9 20.4658 L 256.9 15.3783 L 257.122 15.1381 C 257.396 14.8446 258.265 14.4355 258.877 14.302 C 260.119 14.0441 261.715 14.2665 262.956 14.8802 C 263.311 15.0581 263.621 15.1826 263.639 15.1648 C 263.674 15.1292 265.723 9.71258 265.785 9.48133 C 265.811 9.38349 265.696 9.28565 265.35 9.15224 C 264.703 8.8943 264.135 8.77868 263.453 8.79647 L 263.453 8.79647 Z M 236.949 8.86762 C 233.766 8.86762 231.204 9.86378 229.226 11.8472 C 227.116 13.9818 225.999 16.9614 225.999 20.448 C 225.999 24.0769 227.01 27.0031 228.969 29.0488 C 230.042 30.1784 231.097 30.8543 232.605 31.3969 C 233.137 31.5837 233.527 31.6726 234.954 31.9394 C 235.078 31.9661 235.894 31.9661 236.772 31.9483 C 237.96 31.9217 238.563 31.8683 239.122 31.7438 C 240.691 31.3702 241.95 30.8099 243.068 29.9738 C 245.799 27.9281 247.288 24.7973 247.43 20.8305 C 247.563 16.9259 246.393 13.5994 244.114 11.447 C 242.278 9.70369 239.955 8.86762 236.949 8.86762 L 236.949 8.86762 Z M 300.126 8.86762 C 297.111 8.86762 294.629 9.87268 292.678 11.8828 C 291.082 13.4838 290.195 15.2804 289.663 17.8064 C 289.486 18.5713 289.486 18.9627 289.486 20.5636 C 289.486 22.1557 289.486 22.5648 289.663 23.2942 C 290.639 27.9637 293.742 31.0322 298.175 31.8238 C 299.239 32.0195 300.924 32.0373 301.988 31.8594 C 304.028 31.5214 306.067 30.5341 307.486 29.1555 C 308.284 28.3995 308.55 28.0348 308.461 27.8392 C 308.195 27.3322 308.195 27.3322 307.397 27.7947 C 306.244 28.5329 305.624 28.7375 304.205 28.8887 C 302.609 29.0577 301.013 28.782 299.683 28.0526 C 298.707 27.5723 297.555 26.4694 297.023 25.4733 C 296.313 24.1125 295.87 22.5293 295.781 20.4925 C 295.693 19.6297 295.693 19.4163 295.781 19.354 C 295.87 19.3095 298.796 19.274 302.431 19.274 L 308.904 19.274 L 308.904 19.016 C 308.904 18.429 308.727 16.8636 308.55 16.0364 C 307.84 12.7189 306.067 10.3619 303.407 9.41017 C 302.431 9.02772 301.456 8.86762 300.126 8.86762 L 300.126 8.86762 Z M 319.545 8.92099 C 317.594 8.92099 317.417 8.93878 316.619 9.15224 C 314.224 9.80152 312.451 11.1357 311.564 12.9946 C 311.121 13.9907 310.944 14.7468 310.944 15.9386 C 310.944 17.6285 311.387 18.8826 312.451 19.9766 C 313.249 20.9105 314.402 21.5776 316.353 22.298 C 317.86 22.8673 319.456 23.65 320.077 24.148 C 320.431 24.4415 320.697 24.7795 320.875 25.1531 C 321.141 25.6956 321.229 25.7668 321.229 26.6118 C 321.229 27.43 321.141 27.5546 320.875 28.0971 C 320.254 29.5291 318.924 30.2317 317.151 30.0894 C 314.757 29.8938 313.072 28.3017 311.653 24.9396 C 311.298 24.068 311.298 24.0502 310.766 24.2548 L 310.5 24.3526 L 310.589 27.4834 C 310.589 30.2673 310.589 30.632 310.766 30.7298 C 311.121 31.0322 313.692 31.637 315.466 31.8505 C 316.885 32.0195 318.924 32.0195 319.988 31.8683 C 323.801 31.2902 326.195 29.2623 326.815 26.167 C 327.17 24.6728 326.993 23.0096 326.461 21.8978 C 325.751 20.3413 324.421 19.4074 321.318 18.0732 C 319.013 17.0949 317.594 16.2588 317.062 15.5028 C 316.53 14.8891 316.441 14.4088 316.441 13.5816 C 316.441 12.3364 316.885 11.3847 317.771 10.7888 C 318.569 10.2907 319.456 10.1662 320.609 10.4241 C 321.939 10.7443 322.914 11.5537 323.801 13.0657 C 324.067 13.546 324.687 14.898 324.953 15.734 C 325.042 15.8585 325.042 15.8674 325.397 15.7785 C 325.574 15.7162 325.751 15.6451 325.84 15.6095 L 325.84 12.7811 L 325.751 10.0061 L 325.397 9.87268 C 324.865 9.64143 323.446 9.25008 322.559 9.08109 C 321.85 8.94767 321.229 8.92099 319.545 8.92099 L 319.545 8.92099 Z M 236.426 10.3797 C 237.277 10.3797 237.747 10.5931 238.412 11.2602 C 240 12.8701 240.753 15.9297 240.744 20.7415 C 240.736 24.5839 240.354 27.0031 239.503 28.6397 C 239.086 29.4313 238.315 30.1606 237.685 30.3474 C 235.256 31.0678 233.527 28.7553 232.853 23.899 C 232.631 22.3336 232.64 18.0643 232.853 16.2677 C 233.332 12.3631 234.529 10.3885 236.426 10.3797 L 236.426 10.3797 Z M 299.683 10.3885 C 301.19 10.3797 302.165 12.5054 302.343 16.3744 L 302.343 17.4773 L 300.835 17.5307 C 299.949 17.5574 298.53 17.5929 297.643 17.6107 L 295.959 17.6374 L 295.959 17.2816 C 295.959 17.0771 296.047 16.5612 296.136 16.1165 C 296.668 12.5321 297.998 10.3885 299.683 10.3885 L 299.683 10.3885 Z M 275.964 11.5804 C 276.717 11.5804 276.815 11.6071 277.445 11.9184 C 278.97 12.6744 280.016 14.5511 280.504 17.4062 C 280.681 18.4646 280.708 21.3463 280.539 22.6093 C 280.14 25.7134 279.129 28.2216 277.781 29.4401 C 277.249 29.9204 276.744 30.1784 276.106 30.3029 C 275.636 30.3918 275.494 30.3918 274.651 30.3296 C 274.288 30.3029 274.208 30.2584 274.137 30.0716 C 274.022 29.7692 273.889 19.3451 273.942 15.1826 L 273.986 11.9273 L 274.581 11.7583 C 274.971 11.6426 275.432 11.5804 275.964 11.5804 L 275.964 11.5804 Z" /></g></g></g></svg>