<svg xmlns="http://www.w3.org/2000/svg" viewBox="0 0 215 32" width="215px" height="32px" version="1.1"><g fill="none" fill-rule="evenodd" stroke="none" stroke-width="1"><g fill="#7a8995" transform="translate(-622 -2504)"><g transform="translate(195 2504)"><path d="M 457.939 2.125 L 445.782 2.125 L 445.782 7.5 L 448.528 7.5 L 448.569 17.4167 L 438.633 2.125 L 427.04 2.125 L 427.04 7.5 L 429.383 7.5 L 429.383 25.875 L 427 25.875 L 427 31.25 L 439.4 31.25 L 439.4 25.875 L 436.29 25.875 L 436.29 15.375 L 446.59 31.25 L 455.274 31.25 L 455.274 7.5 L 457.939 7.5 L 457.939 2.125 Z M 476.842 24.3333 C 474.661 26.2083 472.561 26.3333 471.188 26.3333 C 467.795 26.3333 467.27 24.0417 467.027 22.9167 L 479.75 22.9167 C 480.599 20.5417 480.154 17.3333 479.67 15.875 C 478.498 12.375 474.823 9.83333 470.016 9.83333 C 463.917 9.83333 459.151 13.875 459.151 20.7083 C 459.151 28.7083 464.806 32 469.814 32 C 474.015 32 477.246 31.0417 480.235 28.375 L 476.842 24.3333 Z M 470.259 15.4583 C 472.844 15.4583 473.207 17.2083 473.247 18.7917 L 467.148 18.7917 C 467.229 17.75 467.795 15.4583 470.259 15.4583 L 470.259 15.4583 Z M 492.231 24.875 C 492.15 23.6667 491.787 20.875 491.221 18.875 L 490.333 15.8333 L 491.706 15.8333 L 491.706 10.4167 L 480.841 10.4167 L 480.841 15.8333 L 482.578 15.8333 L 487.142 31.25 L 495.462 31.25 L 498.37 21.8333 L 501.157 31.25 L 509.68 31.25 L 514.406 15.8333 L 516.062 15.8333 L 516.062 10.4167 L 506.206 10.4167 L 506.206 15.8333 L 507.862 15.8333 L 507.176 18.2917 C 506.57 20.5 506.206 23.5417 506.085 24.875 L 506.004 24.875 C 505.843 23.4167 505.237 19.0417 504.268 15.8333 L 502.733 10.4167 L 495.26 10.4167 L 493.968 15.0833 C 492.756 19.2083 492.433 23.1667 492.312 24.875 L 492.231 24.875 Z M 521.716 31.25 L 522.08 28.7083 C 523.049 30.2917 525.352 31.75 528.26 31.75 C 532.178 31.75 535.772 29.4167 535.772 25.5 C 535.772 21.125 532.339 19.9167 529.269 18.8333 C 526.684 17.9167 524.301 17.4167 524.301 16.25 C 524.301 15.2083 525.028 14.75 525.877 14.75 C 527.896 14.75 529.996 16.1667 529.996 17.9167 L 535.247 17.9167 L 535.247 10.4167 L 530.279 10.4167 L 529.956 13.1667 C 529.108 11.375 526.684 9.91667 523.938 9.91667 C 521.07 9.91667 516.829 11.7083 516.829 15.9583 C 516.829 19.875 519.454 21.625 522.201 22.625 C 525.109 23.6667 528.138 23.875 528.138 25.125 C 528.138 26.2917 527.169 26.5417 526.361 26.5417 C 525.15 26.5417 522.08 25.9583 522.08 23.75 L 516.667 23.75 L 516.667 31.25 L 521.716 31.25 Z M 547.97 24.875 C 547.89 23.6667 547.526 20.875 546.961 18.875 L 546.072 15.8333 L 547.445 15.8333 L 547.445 10.4167 L 536.58 10.4167 L 536.58 15.8333 L 538.317 15.8333 L 542.881 31.25 L 551.202 31.25 L 554.11 21.8333 L 556.897 31.25 L 565.419 31.25 L 570.145 15.8333 L 571.801 15.8333 L 571.801 10.4167 L 561.945 10.4167 L 561.945 15.8333 L 563.602 15.8333 L 562.915 18.2917 C 562.309 20.5 561.945 23.5417 561.824 24.875 L 561.744 24.875 C 561.582 23.4167 560.976 19.0417 560.007 15.8333 L 558.472 10.4167 L 551 10.4167 L 549.707 15.0833 C 548.495 19.2083 548.172 23.1667 548.051 24.875 L 547.97 24.875 Z M 589.694 24.3333 C 587.513 26.2083 585.413 26.3333 584.039 26.3333 C 580.646 26.3333 580.121 24.0417 579.879 22.9167 L 592.602 22.9167 C 593.45 20.5417 593.006 17.3333 592.521 15.875 C 591.35 12.375 587.674 9.83333 582.868 9.83333 C 576.769 9.83333 572.003 13.875 572.003 20.7083 C 572.003 28.7083 577.658 32 582.666 32 C 586.867 32 590.098 31.0417 593.087 28.375 L 589.694 24.3333 Z M 583.11 15.4583 C 585.695 15.4583 586.059 17.2083 586.099 18.7917 L 580 18.7917 C 580.081 17.75 580.646 15.4583 583.11 15.4583 L 583.11 15.4583 Z M 611.586 24.3333 C 609.405 26.2083 607.304 26.3333 605.931 26.3333 C 602.538 26.3333 602.013 24.0417 601.771 22.9167 L 614.494 22.9167 C 615.342 20.5417 614.898 17.3333 614.413 15.875 C 613.242 12.375 609.566 9.83333 604.76 9.83333 C 598.661 9.83333 593.895 13.875 593.895 20.7083 C 593.895 28.7083 599.549 32 604.558 32 C 608.758 32 611.99 31.0417 614.979 28.375 L 611.586 24.3333 Z M 605.002 15.4583 C 607.587 15.4583 607.951 17.2083 607.991 18.7917 L 601.892 18.7917 C 601.973 17.75 602.538 15.4583 605.002 15.4583 L 605.002 15.4583 Z M 627.904 31.25 L 627.904 25.7917 L 626.409 25.7917 L 626.409 22.2917 L 627.823 21.2917 L 630.893 25.7917 L 629.196 25.7917 L 629.196 31.25 L 641.152 31.25 L 641.152 25.7917 L 639.132 25.7917 L 633.68 17.75 L 636.426 15.9583 L 639.536 15.9583 L 639.536 10.4583 L 628.227 10.4583 L 628.227 15.9583 L 631.135 15.9583 L 626.45 18.8333 L 626.45 0 L 617.119 0 L 617.119 5.45833 L 618.775 5.45833 L 618.775 25.8333 L 617.119 25.8333 L 617.119 31.25 L 627.904 31.25 Z" /></g></g></g></svg>