<svg xmlns="http://www.w3.org/2000/svg" viewBox="0 0 117 49" width="117px" height="49px" version="1.1"><g fill="none" fill-rule="evenodd" stroke="none" stroke-width="1"><g fill="#7a8995" transform="translate(-582 -2590)"><g transform="translate(195 2504)"><g transform="translate(388 86)"><path stroke="#7a8995" d="M 45.4093 20.2508 L 47.812 20.5794 C 47.501 21.6512 46.8945 22.5352 45.9925 23.2315 C 45.0905 23.9278 43.9591 24.2759 42.5983 24.2759 C 40.9653 24.2759 39.6512 23.7244 38.6559 22.6213 C 37.6605 21.5182 37.1629 20.0239 37.1629 18.1385 C 37.1629 16.3469 37.6644 14.8644 38.6675 13.6909 C 39.6706 12.5174 41.0314 11.9306 42.7499 11.9306 C 44.4295 11.9306 45.7281 12.5096 46.6456 13.6674 C 47.5632 14.8253 48.022 16.3117 48.022 18.1267 L 48.0103 18.4319 L 39.9272 18.4319 C 39.9272 19.2377 40.0031 19.8831 40.1547 20.3681 C 40.3063 20.8532 40.6076 21.2756 41.0586 21.6355 C 41.5096 21.9954 42.0734 22.1753 42.7499 22.1753 C 44.064 22.1753 44.9505 21.5338 45.4093 20.2508 L 45.4093 20.2508 Z M 45.246 16.7068 C 45.2382 15.854 44.9835 15.1578 44.482 14.618 C 43.9804 14.0781 43.3603 13.8082 42.6216 13.8082 C 41.8907 13.8082 41.2803 14.0605 40.7904 14.5652 C 40.3005 15.0698 40.0128 15.7836 39.9272 16.7068 L 45.246 16.7068 Z M 51.6495 24.0295 L 50.4481 24.0295 L 50.4481 8.01113 L 53.1074 8.01113 L 53.1074 13.7965 C 53.6129 12.9125 54.1183 12.3296 54.6238 12.048 C 55.1292 11.7663 55.7202 11.6255 56.3967 11.6255 C 57.6875 11.6255 58.7567 12.1771 59.6042 13.2802 C 60.4518 14.3833 60.8756 15.9127 60.8756 17.8686 C 60.8756 19.6367 60.4577 21.1466 59.6217 22.3983 C 58.7858 23.65 57.5864 24.2759 56.0234 24.2759 C 54.4527 24.2759 53.2319 23.5444 52.361 22.0814 L 51.6495 24.0295 Z M 110.75 18.8644 C 110.717 18.9343 110.671 18.9998 110.613 19.0575 L 89.4789 40.0867 C 89.2053 40.3589 88.7642 40.3565 88.4936 40.0812 C 88.223 39.806 88.2255 39.3622 88.4991 39.0899 L 109.633 18.0607 C 109.697 17.9968 109.771 17.948 109.849 17.9144 L 107.801 15.7552 L 115 13.6523 L 112.678 20.8957 L 110.75 18.8644 Z M 16.4439 11.6042 L 19.8187 24.0295 L 22.7696 24.0295 L 25.6506 12.2475 L 28.8232 24.0295 L 31.8325 24.0295 L 36.0898 8.01113 L 33.5587 8.01113 L 30.5378 19.6875 L 27.3652 8.01113 L 24.4609 8.01113 L 21.5916 19.6875 L 18.954 9.68611 L 20.6453 9.68611 L 20.6453 7.21001 L 9.09799 7.21001 L 9.09799 9.68611 L 13.332 9.68611 L 13.5831 24.4339 L 16.6624 24.4339 L 16.4439 11.6042 Z M 53.1074 18.9717 C 53.1074 20.0278 53.3349 20.8082 53.7898 21.3128 C 54.2447 21.8174 54.8337 22.0697 55.5569 22.0697 C 56.2567 22.0697 56.8438 21.7803 57.3181 21.2013 C 57.7924 20.6224 58.0452 19.488 58.0763 17.7982 C 58.0763 16.5621 57.8624 15.6096 57.4348 14.9407 C 57.0071 14.2718 56.4044 13.9373 55.6269 13.9373 C 54.8959 13.9373 54.2933 14.2229 53.8189 14.794 C 53.3446 15.3651 53.1074 16.1709 53.1074 17.2114 L 53.1074 18.9717 Z M 21.6655 46.7071 L 18.5978 46.7071 L 17.3265 42.8932 L 11.2029 42.8932 L 9.9549 46.7071 L 7.50548 46.7071 L 12.7892 30.6887 L 16.3234 30.6887 L 21.6655 46.7071 Z M 16.5567 40.5814 L 14.2355 33.4347 L 11.9144 40.5814 L 16.5567 40.5814 Z M 26.5293 46.7071 L 23.5783 46.7071 L 23.5783 30.6887 L 33.6443 30.6887 L 33.6443 33.1648 L 26.5293 33.1648 L 26.5293 37.542 L 32.128 37.542 L 32.128 39.9477 L 26.5293 39.9477 L 26.5293 46.7071 Z M 48.1192 46.7071 L 45.0866 46.7071 L 42.6138 40.1237 L 38.5781 40.1237 L 38.5781 46.7071 L 35.7088 46.7071 L 35.7088 30.6887 L 42.6138 30.6887 C 44.5345 30.6887 45.9458 31.1249 46.8478 31.9972 C 47.7498 32.8695 48.2008 33.998 48.2008 35.3827 C 48.2008 37.4403 47.2444 38.8563 45.3315 39.6308 L 48.1192 46.7071 Z M 38.5781 37.8119 L 42.1473 37.8119 C 43.1815 37.8119 43.9513 37.5928 44.4567 37.1547 C 44.9622 36.7166 45.2149 36.1142 45.2149 35.3475 C 45.2149 34.6434 44.966 34.0743 44.4684 33.6401 C 43.9707 33.2059 43.2748 32.9888 42.3805 32.9888 L 38.5781 32.9888 L 38.5781 37.8119 Z M 53.9278 46.7071 L 51.0585 46.7071 L 51.0585 30.6887 L 53.9278 30.6887 L 53.9278 46.7071 Z M 66.3265 41.1446 L 68.9859 41.438 C 68.8148 43.0418 68.1986 44.362 67.1372 45.3986 C 66.0758 46.4352 64.6819 46.9535 62.9557 46.9535 C 61.5016 46.9535 60.3216 46.5858 59.4157 45.8504 C 58.5098 45.115 57.8119 44.1175 57.322 42.858 C 56.8321 41.5984 56.5872 40.2098 56.5872 38.692 C 56.5872 36.2511 57.1626 34.266 58.3134 32.7365 C 59.4643 31.207 61.0467 30.4423 63.0606 30.4423 C 64.6392 30.4423 65.9533 30.9312 67.003 31.9092 C 68.0528 32.8871 68.7137 34.2875 68.9859 36.1103 L 66.3265 36.3919 C 65.8366 33.9745 64.7558 32.7658 63.084 32.7658 C 62.0109 32.7658 61.1769 33.2685 60.5821 34.2738 C 59.9872 35.2791 59.6898 36.7362 59.6898 38.6451 C 59.6898 40.5853 60.0086 42.0502 60.6462 43.0399 C 61.2838 44.0295 62.1275 44.5243 63.1773 44.5243 C 64.0171 44.5243 64.7325 44.1918 65.3234 43.5269 C 65.9144 42.8619 66.2488 42.0678 66.3265 41.1446 Z M 83.7524 46.7071 L 80.6848 46.7071 L 79.4134 42.8932 L 73.2899 42.8932 L 72.0418 46.7071 L 69.5924 46.7071 L 74.8762 30.6887 L 78.4103 30.6887 L 83.7524 46.7071 Z M 78.6436 40.5814 L 76.3225 33.4347 L 74.0014 40.5814 L 78.6436 40.5814 Z M 71.5991 9.94212 L 78.5663 2.93238 C 78.8384 2.65863 78.8384 2.2148 78.5663 1.94105 C 78.2942 1.66731 77.8531 1.66731 77.581 1.94105 L 70.6137 8.95079 C 70.3417 9.22454 70.3417 9.66837 70.6137 9.94212 C 70.8858 10.2159 71.327 10.2159 71.5991 9.94212 Z M 95.9844 47.7947 L 100.861 42.8879 C 101.134 42.6141 101.134 42.1703 100.861 41.8965 C 100.589 41.6228 100.148 41.6228 99.8761 41.8965 L 94.9991 46.8034 C 94.727 47.0771 94.727 47.5209 94.9991 47.7947 C 95.2712 48.0684 95.7123 48.0684 95.9844 47.7947 Z M 71.5991 14.8489 L 84.3723 1.99775 C 84.6444 1.724 84.6444 1.28017 84.3723 1.00642 C 84.1002 0.732676 83.6591 0.732676 83.387 1.00642 L 70.6137 13.8576 C 70.3417 14.1314 70.3417 14.5752 70.6137 14.8489 C 70.8858 15.1227 71.327 15.1227 71.5991 14.8489 Z M 71.8313 19.5221 L 88.0882 3.16604 C 88.3603 2.89229 88.3603 2.44846 88.0882 2.17471 C 87.8161 1.90097 87.375 1.90097 87.1029 2.17471 L 70.846 18.5308 C 70.5739 18.8045 70.5739 19.2483 70.846 19.5221 C 71.1181 19.7958 71.5592 19.7958 71.8313 19.5221 Z M 74.6182 21.625 L 90.8751 5.26896 C 91.1472 4.99521 91.1472 4.55138 90.8751 4.27763 C 90.603 4.00389 90.1619 4.00389 89.8898 4.27763 L 73.6329 20.6337 C 73.3608 20.9074 73.3608 21.3513 73.6329 21.625 C 73.905 21.8988 74.3461 21.8988 74.6182 21.625 Z M 77.8696 23.027 L 95.2877 5.50262 C 95.5598 5.22887 95.5598 4.78504 95.2877 4.51129 C 95.0156 4.23754 94.5744 4.23754 94.3024 4.51129 L 76.8843 22.0356 C 76.6122 22.3094 76.6122 22.7532 76.8843 23.027 C 77.1563 23.3007 77.5975 23.3007 77.8696 23.027 Z M 82.511 23.0304 L 99.4646 6.207 C 99.7386 5.93514 99.7416 5.49132 99.4714 5.21569 C 99.2012 4.94007 98.7601 4.93701 98.4861 5.20886 L 81.5325 22.0322 C 81.2585 22.3041 81.2555 22.7479 81.5257 23.0235 C 81.7959 23.2992 82.237 23.3022 82.511 23.0304 Z M 86.2303 24.1952 L 101.326 9.00749 C 101.598 8.73374 101.598 8.28991 101.326 8.01616 C 101.054 7.74241 100.613 7.74241 100.341 8.01616 L 85.2449 23.2039 C 84.9729 23.4777 84.9729 23.9215 85.2449 24.1952 C 85.517 24.469 85.9582 24.469 86.2303 24.1952 Z M 87.1592 28.1674 L 102.952 12.2787 C 103.224 12.0049 103.224 11.5611 102.952 11.2874 C 102.68 11.0136 102.238 11.0136 101.966 11.2874 L 86.1739 27.1761 C 85.9018 27.4499 85.9018 27.8937 86.1739 28.1674 C 86.446 28.4412 86.8871 28.4412 87.1592 28.1674 Z M 89.0172 30.9713 L 104.81 15.0826 C 105.082 14.8088 105.082 14.365 104.81 14.0913 C 104.537 13.8175 104.096 13.8175 103.824 14.0913 L 88.0318 29.98 C 87.7598 30.2537 87.7598 30.6976 88.0318 30.9713 C 88.3039 31.2451 88.7451 31.2451 89.0172 30.9713 Z M 88.5495 36.115 L 106.664 18.1233 C 106.938 17.8514 106.941 17.4075 106.671 17.132 C 106.4 16.8565 105.959 16.8537 105.685 17.1256 L 87.5705 35.1173 C 87.2967 35.3893 87.2939 35.8331 87.5642 36.1086 C 87.8345 36.3841 88.2757 36.387 88.5495 36.115 Z M 90.4067 43.5927 L 105.27 28.8723 C 105.544 28.6007 105.548 28.1569 105.278 27.881 C 105.008 27.6051 104.567 27.6016 104.293 27.8732 L 89.4292 42.5936 C 89.155 42.8652 89.1515 43.309 89.4214 43.5849 C 89.6914 43.8608 90.1325 43.8643 90.4067 43.5927 Z M 92.2641 46.6308 L 105.27 33.7797 C 105.544 33.5084 105.548 33.0646 105.278 32.7884 C 105.009 32.5122 104.568 32.5082 104.293 32.7794 L 91.2877 45.6306 C 91.0131 45.9019 91.0092 46.3457 91.2788 46.6219 C 91.5484 46.8981 91.9895 46.9021 92.2641 46.6308 Z M 5.6888 8.50213 C 5.6888 8.50213 3.5242 13.6189 1.93169 17.2239 C 0.339176 20.8289 -1.65146 25.6356 2.32982 26.4367 C 6.31109 27.2378 7.22527 24.4339 7.22527 18.8261 C 7.22527 13.2184 7.22527 8.50213 7.22527 8.50213 L 5.6888 8.50213 Z" /><path d="M 7.73742 7.21392 C 9.71741 7.21392 11.3225 5.59903 11.3225 3.60696 C 11.3225 1.61489 9.71741 0 7.73742 0 C 5.75743 0 4.15233 1.61489 4.15233 3.60696 C 4.15233 5.59903 5.75743 7.21392 7.73742 7.21392 Z M 7.73742 5.1528 C 8.58599 5.1528 9.27389 4.46071 9.27389 3.60696 C 9.27389 2.75322 8.58599 2.06112 7.73742 2.06112 C 6.88885 2.06112 6.20095 2.75322 6.20095 3.60696 C 6.20095 4.46071 6.88885 5.1528 7.73742 5.1528 Z" /></g></g></g></g></svg>